<?xml version="1.0" encoding="UTF-8" standalone="no"?>
<!DOCTYPE svg PUBLIC "-//W3C//DTD SVG 1.1//EN" "http://www.w3.org/Graphics/SVG/1.1/DTD/svg11.dtd">
<svg width="100%" height="100%" viewBox="0 0 376 210" version="1.1" xmlns="http://www.w3.org/2000/svg" xmlns:xlink="http://www.w3.org/1999/xlink" xml:space="preserve" xmlns:serif="http://www.serif.com/" style="fill-rule:evenodd;clip-rule:evenodd;">
    <g id="Layer-1" serif:id="Layer 1" transform="matrix(1,0,0,1,-115.904,-393.749)">
        <circle id="path3721-35-1" cx="141.758" cy="432.732" r="1.989" style="fill:rgb(255,204,170);"/>
        <circle id="path3721-8-6-1" cx="173.855" cy="504.476" r="1.989" style="fill:rgb(255,204,170);"/>
        <circle id="path3721-3-8-6" cx="269.12" cy="559.052" r="1.989" style="fill:rgb(255,204,170);"/>
        <circle id="path3721-9-8-3" cx="245.277" cy="514.352" r="1.989" style="fill:rgb(255,204,170);"/>
        <circle id="path3721-4-1-3" cx="416.091" cy="578.792" r="1.989" style="fill:rgb(255,204,170);"/>
        <circle id="path3721-53-3-3" cx="306.723" cy="575.73" r="1.989" style="fill:rgb(255,204,170);"/>
        <circle id="path3721-5-8-2-6" cx="341.818" cy="541.279" r="1.989" style="fill:rgb(255,204,170);"/>
        <circle id="path3721-3-8-6-6" cx="227.966" cy="473.359" r="1.989" style="fill:rgb(255,204,170);"/>
        <circle id="path3721-3-8-6-9" cx="136.358" cy="577.287" r="1.989" style="fill:rgb(255,204,170);"/>
        <circle id="path3721-3-8-6-5" cx="208.68" cy="559.341" r="1.989" style="fill:rgb(255,204,170);"/>
        <circle id="path3721-35-1-4" cx="223.025" cy="412.657" r="1.989" style="fill:rgb(175,221,233);"/>
        <circle id="path3721-8-6-1-7" cx="261.55" cy="445.293" r="1.989" style="fill:rgb(175,221,233);"/>
        <circle id="path3721-9-8-3-5" cx="329.758" cy="466.687" r="1.989" style="fill:rgb(175,221,233);"/>
        <circle id="path3721-5-8-2-6-6" cx="426.299" cy="493.614" r="1.989" style="fill:rgb(175,221,233);"/>
        <circle id="path3721-3-8-6-6-9" cx="312.446" cy="425.694" r="1.989" style="fill:rgb(175,221,233);"/>
        <circle id="path3721-9-8-3-5-3" cx="390.104" cy="456.891" r="1.989" style="fill:rgb(175,221,233);"/>
        <circle id="path3721-3-8-6-6-9-9" cx="381.095" cy="411.344" r="1.989" style="fill:rgb(175,221,233);"/>
        <circle id="path3721-35-1-4-1" cx="416.023" cy="459.206" r="1.989" style="fill:rgb(175,221,233);"/>
        <circle id="path3721-3-8-6-6-9-2" cx="458.301" cy="525.279" r="1.989" style="fill:rgb(175,221,233);"/>
        <path id="path10668" d="M137.162,394.073L458.858,581.305" style="fill:none;stroke:white;stroke-width:0.75px;"/>
    </g>
</svg>
