<svg width="586" height="825" viewBox="0 0 586 825" version="1.1" xmlns="http://www.w3.org/2000/svg" xmlns:xlink="http://www.w3.org/1999/xlink">
<title>Group</title>
<desc>Created using Figma</desc>
<g id="Canvas" transform="translate(375 -1963)">
<g id="Group">
<g id="Line 3.1">
<use xlink:href="#path0_stroke" transform="matrix(0.828028 0.560687 -0.560446 0.828191 -303.106 2036.27)"/>
</g>
<g id="Line 3.3">
<use xlink:href="#path1_stroke" transform="matrix(0.987187 0.159565 -0.159467 0.987203 -307.176 2262.88)" fill="#DBDBDB"/>
</g>
<g id="Line 3.4">
<use xlink:href="#path2_stroke" transform="matrix(0.752325 -0.658792 0.658558 0.75253 -286.829 2706.59)" fill="#737373"/>
</g>
<g id="Line 3.5">
<use xlink:href="#path3_stroke" transform="matrix(0.944542 -0.328389 0.328205 0.944606 -307.176 2489.48)" fill="#BFBFBF"/>
</g>
<g id="Ellipse">
<use xlink:href="#path4_fill" transform="translate(-375 1963)" fill="#2F80ED"/>
</g>
<g id="Ellipse">
<use xlink:href="#path4_fill" transform="translate(-375 2189.6)" fill="#95BEF5"/>
</g>
<g id="Ellipse">
<use xlink:href="#path4_fill" transform="translate(-375 2416.21)" fill="#E6EBF2"/>
</g>
<g id="Ellipse">
<use xlink:href="#path4_fill" transform="translate(-375 2642.81)" fill="#0065ED"/>
</g>
<g id="Ellipse">
<use xlink:href="#path4_fill" transform="translate(65.8565 2261.52)" fill="#5F9CED"/>
</g>
</g>
</g>
<defs>
<path id="path0_stroke" d="M 0 0L 532.418 0L 532.418 -5L 0 -5L 0 0Z"/>
<path id="path1_stroke" d="M 0 0L 450.701 0L 450.701 -5L 0 -5L 0 0Z"/>
<path id="path2_stroke" d="M 0 0L 564.355 0L 564.355 -5L 0 -5L 0 0Z"/>
<path id="path3_stroke" d="M 0 0L 471.049 0L 471.049 -5L 0 -5L 0 0Z"/>
<path id="path4_fill" d="M 145.144 72.5946C 145.144 112.687 112.652 145.189 72.5718 145.189C 32.4915 145.189 0 112.687 0 72.5946C 0 32.5017 32.4915 0 72.5718 0C 112.652 0 145.144 32.5017 145.144 72.5946Z"/>
</defs>
</svg>
